<?xml version="1.0" encoding="UTF-8"?>
<svg width="1200pt" height="1200pt" version="1.1" viewBox="0 0 1200 1200" xmlns="http://www.w3.org/2000/svg">
 <path d="m544.18 407.26-29.109 58.219c-20.156-3.4688-55.641-3.2812-94.922 25.688-73.875 54.469-121.97 85.781-170.44 94.219-45.094 7.8281-89.906-4.875-156.1-34.922 16.688-63.328 36.328-112.27 36.328-112.27 1.3125-3.2812 1.6875-6.8906 1.0312-10.406-1.7812-9.3281-2.625-17.109-2.3906-23.438 0.046875-2.1094 0.28125-4.0312 0.60938-5.7188 0.23438-1.0781 0.14062-2.1094 0.84375-2.625 1.5938-1.2188 3.9844-0.65625 6.8438-0.42187 7.0312 0.5625 15.609 2.9062 25.734 6.4688 30.422 10.641 60.094 6.2344 91.969-5.8125 40.734-15.328 85.734-43.875 144.05-59.438 63.656-16.969 91.453 28.781 91.453 28.781 5.1562 8.9531 16.641 12.047 25.594 6.8438 8.9531-5.1562 12.047-16.641 6.8438-25.594 0 0-39.703-71.25-133.55-46.219-50.25 13.359-91.078 35.906-127.64 52.219-30.891 13.828-58.031 23.719-86.344 13.781-16.969-5.8594-30.891-8.7656-41.672-8.625-10.641 0.14062-19.078 3.0469-25.641 7.9219-6.9375 5.1094-12.188 12.609-14.859 23.391-2.3438 9.6094-2.4844 22.828 0.32812 40.125-11.906 31.641-74.203 204.98-56.484 317.39-9.6562 18.141-36.656 72.938-36.656 115.69 0 33.562 7.9688 65.578 30.609 92.25 21.75 25.547 57.703 46.594 115.97 57.469 5.4844 0.98438 11.109-0.46875 15.422-4.0312 4.2656-3.5625 6.75-8.8594 6.75-14.438v-18.75h10.922c8.0625 8.1562 23.062 23.25 32.25 32.203 3.5156 3.375 8.2031 5.2969 13.078 5.2969h37.5c10.359 0 18.75-8.3906 18.75-18.75v-18.75h10.969l32.016 32.016c3.5156 3.5156 8.2969 5.4844 13.266 5.4844h37.5c7.125 0 13.594-4.0312 16.781-10.359l14.25-28.453c27.188-2.625 107.06-6 164.29 35.25 3.1406 2.3438 6.9844 3.5625 10.922 3.5625h56.25c4.9688 0 9.75-1.9688 13.266-5.4844l13.266-13.266h21.984l13.266 13.266c3.4688 3.5156 8.25 5.4844 13.219 5.4844h56.25c4.9688 0 9.75-1.9688 13.266-5.4844l13.266-13.266h21.984l13.266 13.266c3.4688 3.5156 8.25 5.4844 13.219 5.4844h56.25c7.125 0 13.594-4.0312 16.781-10.359l13.547-27.141h18.141l13.266 13.266c5.2031 5.2031 12.938 6.8906 19.875 4.3125 0 0 24.984-9.375 49.125-29.062l6.0469 6.0469c6.6094 6.6094 17.109 7.3594 24.562 1.6875 0 0 41.531-31.875 59.156-58.594 14.484-12.094 79.5-70.219 79.5-143.9 0-88.219-63.094-131.26-112.5-131.26-2.25 0-4.5 0.42188-6.6562 1.2188 0 0-43.359 16.828-66.938 17.531-187.78-30.375-340.92-102.05-432.14-248.26 10.219-120.89-40.406-210.89-40.406-210.89-3.8906-6.9844-11.812-10.734-19.688-9.3281-120.19 21.75-127.4 70.453-127.4 70.453-2.3438 10.078 3.9375 20.156 14.016 22.5 1.4062 0.375 2.8125 0.51562 4.2188 0.51562 8.1094 0 15.516-5.2969 17.906-13.266 0.65625-1.0781 17.25-25.781 84.094-40.5 12 26.672 37.453 94.969 29.672 179.76zm572.29 275.16c15.469 37.172 17.391 69.375 9.4688 96.656-9.8906 34.125-35.297 61.547-72.469 81.797-99.75 54.422-289.4 56.906-450.42 19.922-257.58-59.156-320.53-39.094-415.13-37.031-67.031 1.4531-107.95-31.594-129.47-57.094-9.75 21.094-20.953 50.812-20.953 75.844 0 24.609 5.0625 48.375 21.656 67.922 14.625 17.156 37.641 30.797 72.094 39.938v-14.109c0-10.359 8.3906-18.75 18.75-18.75h37.5c5.0156 0 9.8438 2.0156 13.359 5.5781 0 0 18.516 18.797 31.828 31.922h11.062v-18.75c0-10.359 8.3906-18.75 18.75-18.75h37.5c4.9688 0 9.75 1.9688 13.266 5.4844l32.016 32.016h18.141l13.594-27.141c2.7188-5.4375 7.9219-9.2344 13.969-10.172 0 0 115.27-16.922 196.18 37.312h42.609l13.266-13.266c3.4688-3.5156 8.25-5.4844 13.219-5.4844h37.5c4.9688 0 9.75 1.9688 13.266 5.4844l13.266 13.266h40.734l13.266-13.266c3.4688-3.5156 8.25-5.4844 13.219-5.4844h37.5c4.9688 0 9.75 1.9688 13.266 5.4844l13.266 13.266h36.891l13.594-27.141c3.1406-6.3281 9.6094-10.359 16.734-10.359h37.5c4.9688 0 9.75 1.9688 13.266 5.4844l9.5625 9.5625c10.125-5.1562 25.594-14.391 38.578-28.031 3.4688-3.6562 8.2969-5.7656 13.359-5.8125s9.9375 1.9219 13.5 5.4844l6.9375 6.8906c12.281-10.219 30.234-26.578 38.719-40.781 1.2188-2.0625 2.8594-3.8906 4.7812-5.3438 0 0 67.547-49.781 67.547-116.25 0-44.297-21.281-73.547-46.031-86.344zm-576.79-153.71s-24.844-24.844-24.891-24.844c-8.8594-2.4375-38.344-7.6406-72.422 17.531-80.344 59.25-133.55 91.781-186.28 100.97-49.734 8.625-99.609-2.9062-171.47-34.781-11.531 52.781-18.609 110.44-10.453 156.42 5.7188 10.5 38.344 63.938 112.88 62.344 96.703-2.1094 161.06-22.5 424.36 37.969 151.55 34.828 330.19 34.969 424.08-16.266 27.375-14.906 47.109-34.219 54.375-59.344 7.0781-24.375 2.2969-53.531-15.703-88.078-6 1.875-12.844 3.9844-19.969 5.9062 6.9375 34.547-9.2344 59.109-28.594 75.516-20.578 17.438-45.281 24.75-45.281 24.75-7.875 2.3438-16.406-0.70313-20.953-7.5469l-31.922-47.906h-36.562l-39.141 54.797c-10.688 14.906-30.094 20.719-47.203 14.062s-27.469-24.094-25.219-42.328l6.375-51.094-30.656-10.219-63.188 63.188c-12.984 12.984-33.141 15.469-48.891 6.0938-15.75-9.4219-23.109-28.359-17.859-45.938 0 0 27.375-91.312 27.375-91.312l-12.656-6.3281-102.28 81.797c-14.719 11.766-35.625 11.719-50.25-0.14062-14.625-11.812-19.078-32.25-10.641-49.125zm284.26 174.74-7.3594 59.016c-0.14062 1.1719 0.51562 2.2969 1.6406 2.7188s2.3438 0.046875 3.0469-0.89062l39.516-55.312-8.3438-29.25zm150.89-16.031-15.094 24.656 22.406 33.562c3.2344-1.5938 6.8438-3.5156 10.5-5.9062 13.359-8.5781 28.359-23.25 24.562-46.172-1.6406 0.14062-3.1875 0.1875-4.6875 0.1875-0.98437 0-1.9688-0.09375-2.9531-0.23438-11.719-1.875-23.297-3.8906-34.734-6.0938zm-284.53-54.375-29.25 97.547c-0.32812 1.125 0.14063 2.3438 1.125 2.9531 1.0312 0.60938 2.3438 0.46875 3.1875-0.375l65.906-65.953v-49.594zm197.34 33.609 7.7812 27.094h31.594l8.9062-14.578c-16.406-3.7969-32.484-7.9688-48.281-12.516zm-312.19-125.58-65.203 130.4c-0.5625 1.0781-0.28125 2.3906 0.65625 3.1875 0.9375 0.75 2.2969 0.75 3.2812 0l104.48-83.578-0.75-60.797zm193.31 80.344v40.078l33.516 11.156 29.297-24.422c-21.656-8.0625-42.656-16.969-62.812-26.812zm-113.16-72.375 0.46875 39.328 19.969 9.9844 30.938-11.625c-17.953-11.578-35.109-24.141-51.422-37.688zm-90.984-98.906-16.828 33.656 20.391 20.391 32.578-8.25c-12.75-14.391-24.844-29.625-36.094-45.797z" fill-rule="evenodd"/>
</svg>
