<svg version="1.1" id="Layer_1" xmlns="http://www.w3.org/2000/svg" xmlns:xlink="http://www.w3.org/1999/xlink" x="0px" y="0px"
	 width="100%" viewBox="0 0 1024 1024" enable-background="new 0 0 1024 1024" xml:space="preserve">
<path fill="#000000" opacity="1.000000" stroke="none" 
	d="
M738.999878,633.351990 
	C653.168091,633.348267 567.836304,633.344604 482.504517,633.340027 
	C472.325806,633.339478 468.673462,629.144287 471.213257,619.258362 
	C480.718811,582.259033 490.459473,545.320007 500.140503,508.365845 
	C502.918945,497.760010 505.841949,487.191895 508.580261,476.575897 
	C509.082184,474.630005 510.474152,472.153931 507.804688,470.751556 
	C505.095520,469.328247 503.433380,471.575348 501.920990,473.259949 
	C493.466858,482.676697 485.120514,492.190155 476.684021,501.622864 
	C460.145874,520.113831 443.663910,538.656311 426.986511,557.021179 
	C412.096863,573.417480 397.034058,589.657959 381.936523,605.863708 
	C370.781403,617.837646 358.418671,628.070007 341.873657,631.716980 
	C337.658447,632.646118 333.411041,633.376160 329.044922,633.368530 
	C303.045471,633.323059 277.045898,633.362122 251.046387,633.338257 
	C239.895416,633.328003 236.625229,629.252991 239.457870,618.281921 
	C252.537598,567.622864 265.734650,516.994141 278.892120,466.355164 
	C291.797791,416.685181 304.706665,367.016022 317.611725,317.345856 
	C317.778931,316.702332 317.906799,316.048706 318.065552,315.402863 
	C320.300995,306.308594 318.023499,303.293030 308.688049,303.371033 
	C275.535034,303.648041 242.382584,303.992157 209.229889,304.308228 
	C208.063400,304.319366 206.896027,304.326385 205.730118,304.295532 
	C197.157074,304.068939 194.020035,300.040985 196.075195,291.596100 
	C197.960968,283.847321 200.061447,276.150818 202.071960,268.432465 
	C205.964874,253.487564 210.000381,238.577621 213.671555,223.578491 
	C214.783203,219.036743 216.864395,217.650726 221.570694,217.661118 
	C324.899323,217.889328 428.228302,217.936676 531.557251,218.034164 
	C533.719177,218.036194 535.880005,218.260986 538.043030,218.315460 
	C548.213623,218.571579 548.483032,224.009064 546.787903,230.959793 
	C542.694946,247.742355 538.081482,264.397949 533.681274,281.105652 
	C532.242676,286.568268 530.532471,291.979431 529.467712,297.514374 
	C528.561218,302.227081 526.537659,304.064362 521.464233,303.999298 
	C489.976685,303.595276 458.484772,303.529083 426.994324,303.351837 
	C424.328064,303.336823 421.716583,303.573303 419.067871,304.090393 
	C414.204254,305.039948 411.564301,307.865814 410.357941,312.533783 
	C399.011200,356.439026 387.614044,400.331207 376.239471,444.229248 
	C371.864655,461.113037 367.561829,478.015808 363.095734,494.875336 
	C362.352051,497.682800 361.788544,500.323822 364.775879,501.842773 
	C367.657166,503.307831 369.431976,500.873688 371.027924,499.074829 
	C381.524170,487.244110 391.961884,475.361084 402.372314,463.454620 
	C420.128845,443.146393 437.847992,422.805511 455.589508,402.484161 
	C465.005493,391.698975 473.789581,380.364441 483.795929,370.092010 
	C488.871185,364.881805 494.399902,361.104858 502.289093,362.574005 
	C508.358765,363.704285 511.518311,368.214966 514.810120,372.571472 
	C526.255310,387.718384 537.368835,403.121368 549.034607,418.094910 
	C564.689026,438.188049 580.688110,458.014160 596.680664,477.840820 
	C598.917786,480.614349 599.409241,483.032043 598.469727,486.473877 
	C594.360962,501.526489 590.118286,516.550232 586.886780,531.830139 
	C584.558289,542.840210 590.026917,549.634460 601.427368,549.638306 
	C660.759644,549.658447 720.091858,549.647217 779.424133,549.647156 
	C781.090759,549.647156 782.757507,549.635986 784.424011,549.652649 
	C793.862671,549.747070 796.901001,553.463562 794.602112,562.540161 
	C791.136719,576.223083 787.498840,589.862549 783.894043,603.509827 
	C781.773621,611.537781 779.397583,619.503174 777.484985,627.579163 
	C776.480530,631.820557 773.969116,633.305359 769.999084,633.307190 
	C759.832703,633.311890 749.666321,633.335632 738.999878,633.351990 
z"/>
<path fill="#000000" opacity="1.000000" stroke="none" 
	d="
M589.541626,460.384583 
	C573.086609,434.506012 556.902893,408.882416 540.522034,383.385437 
	C536.983154,377.877167 536.837585,372.334351 538.125305,366.235382 
	C543.994812,338.436737 552.278870,311.254395 559.044189,283.684509 
	C563.753296,264.494049 568.875122,245.404770 573.835632,226.276260 
	C575.673767,219.188232 577.114258,218.002136 584.634155,217.985367 
	C607.128113,217.935196 629.622559,217.904587 652.116150,218.015182 
	C663.764771,218.072449 667.141052,222.016769 664.326355,233.174316 
	C655.148254,269.556641 645.738586,305.881134 636.276855,342.191101 
	C625.138062,384.936646 613.853149,427.644043 602.625488,470.366394 
	C602.170166,472.098907 602.094177,474.012817 599.893066,475.688873 
	C595.631836,471.297974 593.160828,465.642273 589.541626,460.384583 
z"/>
</svg>