<?xml version="1.0" encoding="UTF-8"?>
<svg width="1200pt" height="1200pt" version="1.1" viewBox="0 0 1200 1200" xmlns="http://www.w3.org/2000/svg">
 <path d="m750 600c0 82.844-67.156 150-150 150s-150-67.156-150-150 67.156-150 150-150 150 67.156 150 150z"/>
 <path d="m543.16 107.89c-17.625 17.887-17.203 46.551-16.359 103.88l0.074219 5.0781c-161.1 30.562-287.12 160.21-312.29 323.16h-18.648c-49.023 0-73.535 0-89.777 12.621-5.9258 4.6016-10.934 10.277-14.77 16.727-10.508 17.684-7.4648 42.008-1.3867 90.652h124.58c25.746 166.74 157.1 298.61 323.59 325.12l1.8359 124.88h120l1.8359-124.88c166.47-26.523 297.82-158.39 323.57-325.12h124.59c6.0781-48.645 9.1172-72.969-1.3867-90.652-3.8359-6.4492-8.8438-12.125-14.77-16.727-16.246-12.621-40.754-12.621-89.777-12.621h-18.66c-25.16-162.94-151.18-292.59-312.27-323.15l1.8672-126.85h-28.227c-57.332 0-85.996 0-103.62 17.887zm326.84 492.11c0 149.12-120.88 270-270 270s-270-120.88-270-270 120.88-270 270-270 270 120.88 270 270z" fill-rule="evenodd"/>
</svg>
